<svg width="60" height="50" viewBox="0 0 60 50" fill="none" xmlns="http://www.w3.org/2000/svg">
<path d="M41.7017 6.39988L22.5791 11.0644V38.2439L28.0514 36.9112C27.9437 36.4266 27.836 35.915 27.7754 35.4035C27.6879 34.7035 27.6475 34.0236 27.6475 33.3236C27.6475 29.211 29.236 25.4619 31.8476 22.6618C34.3515 19.9493 37.8247 18.1454 41.7084 17.7415V6.39988H41.7017ZM21.9666 10.1759L42.0652 5.27581C42.1056 5.25562 42.1729 5.25562 42.2132 5.25562C42.5094 5.25562 42.7248 5.46427 42.7248 5.76717V18.2127C42.7248 18.4886 42.5363 18.6973 42.2604 18.7242C38.4439 19.0002 35.0313 20.7368 32.5947 23.3686C30.1581 25.9734 28.6706 29.4735 28.6706 33.3304C28.6706 34.0102 28.711 34.6429 28.7985 35.2621C28.886 35.9218 29.0071 36.5343 29.1822 37.167C29.2427 37.443 29.0745 37.7189 28.7985 37.7795L22.2493 39.368C22.1887 39.3882 22.1416 39.4084 22.081 39.4084C21.805 39.4084 21.5695 39.1728 21.5695 38.8969V10.6606C21.5695 10.4519 21.7377 10.2365 21.9733 10.1759H21.9666Z" fill="#2F2F2F" stroke="#2F2F2F"/>
<path d="M2.10378 5.27595L22.2024 10.1761C22.4379 10.2367 22.586 10.452 22.586 10.6607V38.897C22.586 39.173 22.3774 39.4085 22.0745 39.4085C22.0341 39.4085 21.9668 39.3883 21.9264 39.3682L1.80761 34.468C1.57203 34.4276 1.42395 34.2123 1.42395 33.9834V5.76057C1.42395 5.46441 1.65953 5.24902 1.9355 5.24902C1.99608 5.24902 2.0432 5.24902 2.10378 5.26922V5.27595ZM21.5629 11.0646L2.44032 6.40001V33.5728L21.5629 38.2374V11.0578V11.0646Z" fill="#2F2F2F" stroke="#2F2F2F"/>
<path d="M1.82792 5.25564L21.9669 1.01514C22.0544 0.994952 22.115 0.994952 22.1756 1.01514L42.3145 5.25564C42.5905 5.31621 42.779 5.59218 42.7184 5.86815C42.678 6.05662 42.5097 6.2047 42.3145 6.25181L22.1957 11.1721C22.1082 11.1923 22.0275 11.1923 21.9602 11.1721L1.80773 6.25181C1.55196 6.19124 1.38368 5.91527 1.44426 5.6393C1.48465 5.45083 1.63273 5.30275 1.82792 5.25564ZM22.0746 2.03152L4.24433 5.78065L22.0746 10.149L39.925 5.78065L22.0746 2.03152Z" fill="#2F2F2F" stroke="#2F2F2F"/>
<path d="M6.44486 30.7794C6.44486 31.0756 6.20927 31.291 5.9333 31.291C5.63714 31.291 5.42175 31.0823 5.42175 30.7794V10.2972C5.42175 10.0212 5.63714 9.78564 5.9333 9.78564C6.20927 9.78564 6.44486 10.0212 6.44486 10.2972V30.7794Z" fill="#2F2F2F" stroke="#2F2F2F"/>
<path d="M10.4366 27.5148C10.4366 27.7908 10.201 28.0264 9.92505 28.0264C9.62889 28.0264 9.39331 27.7908 9.39331 27.5148V13.5616C9.39331 13.2856 9.62889 13.05 9.92505 13.05C10.201 13.05 10.4366 13.2856 10.4366 13.5616V27.5081V27.5148Z" fill="#2F2F2F" stroke="#2F2F2F"/>
<path d="M43.317 17.6338C47.645 17.6338 51.5624 19.3906 54.4029 22.231C57.2433 25.0715 59.0001 28.9956 59.0001 33.3169C59.0001 37.6381 57.2433 41.5825 54.4029 44.4229C51.5624 47.2634 47.6383 49 43.317 49C38.9957 49 35.0514 47.2634 32.211 44.4229C29.3705 41.5825 27.6339 37.6583 27.6339 33.3169C27.6339 28.9754 29.3705 25.0715 32.211 22.231L32.2311 22.2108C35.0716 19.3906 38.9957 17.6338 43.317 17.6338ZM53.6423 22.9983C51.0105 20.3464 47.3488 18.6973 43.317 18.6973C39.2852 18.6973 35.6235 20.3531 32.9715 22.9782C30.3196 25.6301 28.6907 29.2985 28.6907 33.3236C28.6907 37.3487 30.3263 41.0171 32.9715 43.6691C35.6235 46.3211 39.265 47.9499 43.317 47.9499C47.369 47.9499 51.0105 46.3143 53.6423 43.6691C56.2943 41.0171 57.9231 37.3689 57.9231 33.3236C57.9231 29.2783 56.2943 25.6301 53.6423 22.9983Z" fill="#2F2F2F" stroke="#2F2F2F"/>
<path d="M33.1599 33.4449C33.032 33.1891 33.1195 32.8728 33.3685 32.7247C33.6243 32.5766 33.9407 32.6574 34.0888 32.9132L38.1408 39.9268L52.5988 25.4688C52.8075 25.2601 53.1508 25.2601 53.3594 25.4688C53.5681 25.6774 53.5681 26.0207 53.3594 26.2092L38.3898 41.1788L38.2821 41.2663C38.0264 41.4143 37.71 41.3268 37.5619 41.0778L33.1532 33.4449H33.1599Z" fill="#2F2F2F" stroke="#2F2F2F"/>
</svg>
