<svg width="71" height="49" viewBox="0 0 71 49" fill="none" xmlns="http://www.w3.org/2000/svg">
<g id="Group 117">
<path id="Vector" d="M13.752 0.5C17.3377 0.5 20.5944 1.94665 22.9323 4.29831C25.284 6.64998 26.7581 9.89294 26.7581 13.4787C26.7581 17.0645 25.2909 20.3212 22.9598 22.6797C20.6081 25.0313 17.3446 26.478 13.7588 26.478C10.173 26.478 6.93693 25.0313 4.57841 22.6797C2.22674 20.328 0.759521 17.0645 0.759521 13.4787C0.759521 9.89294 2.22674 6.65683 4.57841 4.29831C6.9095 1.94665 10.173 0.5 13.7588 0.5H13.752ZM22.1919 5.03192C20.0322 2.87223 17.0498 1.53528 13.752 1.53528C10.4541 1.53528 7.46485 2.87223 5.30516 5.03192C3.14547 7.19161 1.80852 10.174 1.80852 13.4719C1.80852 16.7697 3.14547 19.7795 5.30516 21.9392C7.46485 24.0989 10.4473 25.4359 13.752 25.4359C17.0566 25.4359 20.0322 24.0989 22.1919 21.9392C24.3721 19.7795 25.7091 16.7765 25.7091 13.4719C25.7091 10.1672 24.3721 7.19161 22.1919 5.03192Z" fill="#2F2F2F" stroke="#2F2F2F"/>
<path id="Vector_2" d="M13.2305 1.02107C13.2305 0.739967 13.4704 0.5 13.7515 0.5C14.0326 0.5 14.2658 0.739967 14.2658 1.02107V5.18961C14.2658 5.47071 14.0258 5.70382 13.7515 5.70382C13.4773 5.70382 13.2305 5.47071 13.2305 5.18961V1.02107Z" fill="#2F2F2F" stroke="#2F2F2F"/>
<path id="Vector_3" d="M26.2105 12.9578C26.4916 12.9578 26.7247 13.1977 26.7247 13.4788C26.7247 13.7805 26.4916 13.9999 26.2105 13.9999H22.0419C21.7608 13.9999 21.5209 13.7805 21.5209 13.4788C21.5209 13.1977 21.7608 12.9578 22.0419 12.9578H26.2105Z" fill="#2F2F2F" stroke="#2F2F2F"/>
<path id="Vector_4" d="M14.2658 25.9364C14.2658 26.238 14.0258 26.478 13.7515 26.478C13.4773 26.478 13.2305 26.238 13.2305 25.9364V21.7884C13.2305 21.4867 13.4704 21.2673 13.7515 21.2673C14.0326 21.2673 14.2658 21.4799 14.2658 21.7884V25.9364Z" fill="#2F2F2F" stroke="#2F2F2F"/>
<path id="Vector_5" d="M1.2873 13.9999C1.0062 13.9999 0.766235 13.7805 0.766235 13.4788C0.766235 13.1977 1.0062 12.9578 1.2873 12.9578H5.45585C5.73695 12.9578 5.97691 13.1977 5.97691 13.4788C5.97691 13.7805 5.73695 13.9999 5.45585 13.9999H1.2873Z" fill="#2F2F2F" stroke="#2F2F2F"/>
<path id="Vector_6" d="M9.40482 6.22498C9.27456 5.96445 9.38426 5.64221 9.64479 5.53251C9.90533 5.40224 10.207 5.51194 10.3373 5.77248L14.4167 14.2398L20.6764 14.994C20.978 15.0351 21.1769 15.2957 21.1494 15.5768C21.1083 15.8579 20.8478 16.0773 20.5667 16.0293L14.0259 15.2271C13.8545 15.2066 13.7036 15.0969 13.6145 14.946L9.40482 6.22498Z" fill="#2F2F2F" stroke="#2F2F2F"/>
<path id="Vector_7" d="M24.9553 7.9939H48.4925C48.7736 7.9939 49.0135 8.23386 49.0135 8.53553V43.214C49.0135 43.5157 48.7736 43.7351 48.4925 43.7351H19.1687C18.8876 43.7351 18.6476 43.5157 18.6476 43.214V43.1934C18.5859 42.1581 18.1265 41.2051 17.4204 40.5195C16.6867 39.8271 15.7132 39.3951 14.6162 39.3951C13.5192 39.3951 12.5662 39.8271 11.8326 40.5195C11.1195 41.212 10.6465 42.1787 10.6053 43.2414C10.5848 43.5225 10.3448 43.7419 10.0843 43.7419H5.4015C5.09982 43.7419 4.85986 43.5225 4.85986 43.2209V22.2547C5.20267 22.577 5.55233 22.8992 5.91571 23.1803V42.6998H9.61118C9.78258 41.5548 10.3242 40.5195 11.1264 39.7653C12.0314 38.9015 13.2861 38.3598 14.623 38.3598C15.96 38.3598 17.2147 38.9015 18.1402 39.7653C18.9424 40.5195 19.4772 41.5548 19.6554 42.6998H47.9645V9.0566H25.4215C25.2912 8.68637 25.1404 8.34356 24.969 8.00075L24.9553 7.9939Z" fill="#2F2F2F" stroke="#2F2F2F"/>
<path id="Vector_8" d="M48.4922 15.7481H58.1868C58.3582 15.7481 58.509 15.8372 58.6187 15.9606L69.8903 30.1254C69.9794 30.2351 70 30.338 70 30.4477V43.207C70 43.5087 69.7874 43.7281 69.4858 43.7281H64.803C64.5219 43.7281 64.2819 43.5087 64.2819 43.207V43.1864C64.2202 42.1511 63.7609 41.1981 63.0273 40.5125C62.3142 39.82 61.3201 39.3881 60.2437 39.3881C59.1672 39.3881 58.1937 39.82 57.4601 40.5125C56.747 41.205 56.2739 42.1717 56.2259 43.2344C56.2054 43.5155 55.9654 43.7349 55.7049 43.7349H48.4922C48.1905 43.7349 47.9506 43.5155 47.9506 43.2138V16.2623C47.9506 15.9812 48.1905 15.7412 48.4922 15.7412V15.7481ZM57.9263 16.7833H49.0064V42.6928H55.2249C55.3758 41.5478 55.938 40.5125 56.7401 39.7583C57.6452 38.8945 58.8793 38.3528 60.2368 38.3528C61.5943 38.3528 62.8284 38.8945 63.754 39.7583C64.5562 40.5125 65.091 41.5478 65.2624 42.6928H68.9578V30.6396L57.9263 16.7765V16.7833Z" fill="#2F2F2F" stroke="#2F2F2F"/>
<path id="Vector_9" d="M25.7979 16.7422H43.9393C44.241 16.7422 44.4604 16.9822 44.4604 17.2838C44.4604 17.5649 44.241 17.8049 43.9393 17.8049H25.4551C25.5853 17.4621 25.695 17.1124 25.7979 16.7491V16.7422Z" fill="#2F2F2F" stroke="#2F2F2F"/>
<path id="Vector_10" d="M5.39479 26.3891C5.09312 26.3891 4.85315 26.1491 4.85315 25.868C4.85315 25.5869 5.09312 25.3469 5.39479 25.3469H9.90615C11.1128 25.7377 12.4086 25.9503 13.7525 25.9503C15.0963 25.9503 16.3852 25.7377 17.5988 25.3469H43.947C44.2487 25.3469 44.468 25.5869 44.468 25.868C44.468 26.1491 44.2487 26.3891 43.947 26.3891H5.40164H5.39479Z" fill="#2F2F2F" stroke="#2F2F2F"/>
<path id="Vector_11" d="M5.39479 34.9867C5.09312 34.9867 4.85315 34.7673 4.85315 34.4656C4.85315 34.1845 5.09312 33.9514 5.39479 33.9514H43.9401C44.2418 33.9514 44.4612 34.1914 44.4612 34.4656C44.4612 34.7673 44.2418 34.9867 43.9401 34.9867H5.39479Z" fill="#2F2F2F" stroke="#2F2F2F"/>
<path id="Vector_12" d="M48.4922 31.0099C48.1905 31.0099 47.9506 30.7699 47.9506 30.4957C47.9506 30.2214 48.1905 29.9746 48.4922 29.9746H69.4789C69.7806 29.9746 69.9931 30.2146 69.9931 30.4957C69.9931 30.7768 69.7806 31.0099 69.4789 31.0099H48.4922Z" fill="#2F2F2F" stroke="#2F2F2F"/>
<path id="Vector_13" d="M14.6162 38.353C16.0217 38.353 17.2969 38.9152 18.2225 39.8408C19.1275 40.7458 19.7103 42.0211 19.7103 43.4266C19.7103 44.8321 19.1275 46.1073 18.2225 47.0124L18.1814 47.0535C17.2763 47.9585 16.0217 48.5001 14.6162 48.5001C13.2107 48.5001 11.9628 47.9379 11.0304 47.0124C10.1254 46.1073 9.5426 44.8321 9.5426 43.4266C9.5426 42.0211 10.1254 40.7527 11.0304 39.8408L11.0715 39.8202C11.9765 38.9152 13.2312 38.353 14.6093 38.353H14.6162ZM17.4889 40.5744C16.7553 39.8408 15.7406 39.3883 14.6162 39.3883C13.4918 39.3883 12.525 39.8408 11.7846 40.5539L11.764 40.5744C11.0304 41.308 10.5984 42.3227 10.5984 43.4266C10.5984 44.5304 11.0304 45.5657 11.764 46.2787C12.4976 47.0124 13.5123 47.4649 14.6162 47.4649C15.72 47.4649 16.7347 47.0329 17.4477 46.3199L17.4889 46.2787C18.2019 45.5657 18.6544 44.551 18.6544 43.4266C18.6544 42.3022 18.2019 41.308 17.4889 40.5744Z" fill="#2F2F2F" stroke="#2F2F2F"/>
<path id="Vector_14" d="M60.2431 38.353C61.6486 38.353 62.9239 38.9152 63.8495 39.8408C64.7545 40.7458 65.3167 42.0211 65.3167 43.4266C65.3167 44.8321 64.7545 46.1073 63.8495 47.0124L63.8083 47.0535C62.9033 47.9585 61.6486 48.5001 60.2431 48.5001C58.8376 48.5001 57.5898 47.9379 56.6573 47.0124C55.7523 46.1073 55.1696 44.8321 55.1696 43.4266C55.1696 42.0211 55.7523 40.7527 56.6573 39.8408L56.6779 39.8202C57.6035 38.9152 58.8582 38.353 60.2431 38.353ZM63.0953 40.5744C62.3822 39.8408 61.3675 39.3883 60.2431 39.3883C59.1187 39.3883 58.152 39.8408 57.4115 40.5539L57.3909 40.5744C56.6573 41.308 56.2048 42.3227 56.2048 43.4266C56.2048 44.5304 56.6573 45.5657 57.3909 46.2787C58.1246 47.0124 59.1393 47.4649 60.2431 47.4649C61.347 47.4649 62.3617 47.0329 63.0747 46.3199L63.0953 46.2787C63.8289 45.5657 64.2814 44.551 64.2814 43.4266C64.2814 42.3022 63.8289 41.308 63.0953 40.5744Z" fill="#2F2F2F" stroke="#2F2F2F"/>
<path id="Vector_15" d="M50.3704 19.5054H57.2609C57.542 19.5054 57.7819 19.7453 57.7819 20.0264V27.911C57.7819 28.2127 57.542 28.4527 57.2609 28.4527H50.3704C50.0893 28.4527 49.8494 28.2127 49.8494 27.911V20.0264C49.8494 19.7453 50.0893 19.5054 50.3704 19.5054ZM56.7398 20.5407H50.9121V27.3831H56.7398V20.5407Z" fill="#2F2F2F" stroke="#2F2F2F"/>
</g>
</svg>
