<svg width="67" height="49" viewBox="0 0 67 49" fill="none" xmlns="http://www.w3.org/2000/svg">
<g id="058-logistic">
<path id="Vector" d="M61.8405 2.30127H8.78696C7.58008 2.30127 6.59033 3.34413 6.59033 4.54213V39.3013H8.02933V5.97141C8.02933 4.77327 9.01907 3.73055 10.226 3.73055H61.8405V2.30127Z" fill="white"/>
<path id="Vector_2" d="M3.85624 45.3013C3.85624 43.9173 4.9906 42.7298 6.3847 42.7298H24.4946C24.4141 42.4756 24.373 42.2107 24.3728 41.9441C24.3746 41.7826 24.3146 41.6265 24.205 41.5072C24.0953 41.3879 23.9442 41.3143 23.7821 41.3013H4.9457C3.5516 41.3013 2.41724 42.4887 2.41724 43.8727C2.4196 44.3878 2.57595 44.8906 2.86649 45.3174C3.15702 45.7443 3.56865 46.0758 4.04921 46.2701C3.92225 45.9626 3.85671 45.6336 3.85624 45.3013Z" fill="white"/>
<path id="Vector_3" d="M42.7738 16.0358L34.1398 11.0871C33.9867 10.9993 33.813 10.9531 33.6362 10.9531C33.4593 10.9531 33.2856 10.9993 33.1325 11.0871L24.4985 16.0358C24.3454 16.1236 24.2182 16.2498 24.1298 16.4018C24.0414 16.5538 23.9949 16.7263 23.9949 16.9018V26.8001C23.9949 26.9756 24.0414 27.1481 24.1298 27.3001C24.2182 27.4521 24.3454 27.5783 24.4985 27.6661L33.1325 32.6148C33.2857 32.7025 33.4594 32.7487 33.6362 32.7487C33.813 32.7487 33.9867 32.7025 34.1398 32.6148L42.7738 27.6661C42.9269 27.5783 43.0541 27.4521 43.1425 27.3001C43.2309 27.1481 43.2775 26.9756 43.2775 26.8001V16.9018C43.2775 16.7263 43.2309 16.5538 43.1425 16.4018C43.0541 16.2498 42.9269 16.1236 42.7738 16.0358ZM33.6362 20.6951L31.2492 19.327L37.8678 15.5334L40.2556 16.9015L33.6362 20.6951ZM33.6362 13.108L35.8531 14.3794L29.2344 18.173L27.0168 16.9015L33.6362 13.108ZM26.0095 18.6332L32.6289 22.4272V30.016L26.0095 26.2221V18.6332ZM34.6435 30.016V22.4272L41.2629 18.6332V26.2221L34.6435 30.016Z" fill="#2F2F2F"/>
<path id="Vector_4" d="M63.4235 39.5114V4.74114C63.4235 2.44029 61.502 0.5 59.1843 0.5H8.67545C6.35722 0.5 4.4245 2.44029 4.4245 4.74114V39.4269C2.1221 39.6109 0.26709 41.5897 0.26709 43.9554C0.272366 45.1572 0.75484 46.3084 1.6098 47.1593C2.46476 48.0101 3.62322 48.4919 4.83375 48.5H62.4386C63.5645 48.4947 64.6491 48.0781 65.4854 47.3297C66.3218 46.5813 66.8513 45.5534 66.9731 44.4422C67.0948 43.331 66.8003 42.2141 66.1456 41.3047C65.4909 40.3953 64.5219 39.7569 63.4235 39.5114ZM8.67502 2.5H59.1839C60.3908 2.5 61.4084 3.54286 61.4084 4.74114V39.3571H42.8458C41.4092 39.3571 40.2412 40.5739 40.2412 42C40.243 42.1615 40.183 42.3176 40.0734 42.4369C39.9637 42.5562 39.8126 42.6298 39.6505 42.6429H26.8664C26.7044 42.6296 26.5535 42.556 26.444 42.4367C26.3345 42.3174 26.2746 42.1614 26.2764 42C26.2764 40.5739 25.1077 39.3571 23.6711 39.3571H6.4391V4.74114C6.44778 4.15312 6.68547 3.59128 7.10233 3.17345C7.51918 2.75562 8.08282 2.51426 8.67502 2.5ZM64.2274 45.7297C63.9949 45.9685 63.7172 46.1595 63.4103 46.2916C63.1033 46.4238 62.7731 46.4946 62.4386 46.5H4.83375C3.43951 46.5 2.30529 45.3126 2.30529 43.9286C2.30529 42.5446 3.43951 41.3571 4.83375 41.3571H23.6702C23.8324 41.3702 23.9835 41.4437 24.0932 41.563C24.2028 41.6824 24.2628 41.8385 24.261 42C24.261 43.4261 25.4297 44.6429 26.8655 44.6429H39.6496C41.0862 44.6429 42.2549 43.4261 42.2549 42C42.2531 41.8385 42.3131 41.6823 42.4228 41.563C42.5324 41.4437 42.6836 41.3701 42.8458 41.3571H62.4386C63.113 41.3681 63.7561 41.6417 64.2291 42.1191C64.7022 42.5965 64.9672 43.2394 64.9671 43.909C64.9699 44.5886 64.7044 45.2422 64.2274 45.7297Z" fill="#2F2F2F"/>
<path id="Vector_5" d="M58.0991 7.07153C58.0991 6.80632 57.993 6.55196 57.8041 6.36443C57.6152 6.17689 57.359 6.07153 57.0918 6.07153H10.7561C10.4889 6.07153 10.2327 6.17689 10.0438 6.36443C9.85491 6.55196 9.74878 6.80632 9.74878 7.07153V35.5001C9.74878 35.7653 9.85491 36.0197 10.0438 36.2072C10.2327 36.3947 10.4889 36.5001 10.7561 36.5001H57.0918C57.359 36.5001 57.6152 36.3947 57.8041 36.2072C57.993 36.0197 58.0991 35.7653 58.0991 35.5001V7.07153ZM11.7634 8.07153H56.0845V34.5001H11.7634V8.07153Z" fill="#2F2F2F"/>
</g>
</svg>
