<svg width="24" height="24" viewBox="-2 -2 24 24" fill="none" xmlns="http://www.w3.org/2000/svg">
<g id="Icon">
<path id="Vector" d="M19.9058 1.82714C19.9058 1.38949 19.732 0.969769 19.4225 0.660306C19.113 0.350844 18.6933 0.17699 18.2557 0.17699L5.05449 0.0944824C4.61684 0.0944824 4.19712 0.268337 3.88766 0.577799C3.5782 0.887262 3.40434 1.30698 3.40434 1.74463C3.40434 2.18227 3.5782 2.602 3.88766 2.91146C4.19712 3.22092 4.61684 3.39477 5.05449 3.39477H14.2293L0.582593 17.0745C0.427927 17.2279 0.305166 17.4104 0.22139 17.6115C0.137615 17.8126 0.0944824 18.0283 0.0944824 18.2461C0.0944824 18.4639 0.137615 18.6796 0.22139 18.8807C0.305166 19.0818 0.427927 19.2643 0.582593 19.4177C0.735995 19.5724 0.918503 19.6951 1.11959 19.7789C1.32067 19.8627 1.53636 19.9058 1.7542 19.9058C1.97204 19.9058 2.18772 19.8627 2.3888 19.7789C2.58989 19.6951 2.7724 19.5724 2.9258 19.4177L16.6055 5.73798V14.9458C16.6055 15.3834 16.7794 15.8032 17.0888 16.1126C17.3983 16.4221 17.818 16.5959 18.2557 16.5959C18.6933 16.5959 19.113 16.4221 19.4225 16.1126C19.732 15.8032 19.9058 15.3834 19.9058 14.9458V1.82714Z" fill="#1F78FF"/>
</g>
</svg>
