<svg width="24" height="24" viewBox="8 8.5 24 24" fill="none" xmlns="http://www.w3.org/2000/svg">
<path d="M8.74983 19.855C8.74983 19.5128 8.88152 19.1846 9.11594 18.9426C9.35036 18.7007 9.6683 18.5647 9.99983 18.5647L26.9873 18.5647L25.3623 16.9002C25.1269 16.6572 24.9947 16.3277 24.9947 15.9841C24.9947 15.6405 25.1269 15.3109 25.3623 15.0679C25.5977 14.825 25.9169 14.6885 26.2498 14.6885C26.5827 14.6885 26.9019 14.825 27.1373 15.0679L30.8873 18.9389C31.0608 19.1204 31.1783 19.3508 31.225 19.6011C31.2717 19.8514 31.2455 20.1104 31.1498 20.3454C31.0561 20.581 30.8968 20.7827 30.6922 20.9251C30.4875 21.0674 30.2466 21.1441 29.9998 21.1454L9.99983 21.1454C9.6683 21.1454 9.35036 21.0094 9.11594 20.7674C8.88152 20.5255 8.74983 20.1973 8.74983 19.855Z" fill="#2F2F2F"/>
<path d="M25.0003 23.7261C24.9993 23.5563 25.0308 23.388 25.093 23.2308C25.1552 23.0736 25.2469 22.9306 25.3628 22.81L29.1128 18.939C29.3481 18.6961 29.6674 18.5596 30.0003 18.5596C30.1651 18.5596 30.3283 18.5931 30.4806 18.6582C30.6328 18.7233 30.7712 18.8187 30.8878 18.939C31.0043 19.0594 31.0968 19.2022 31.1598 19.3594C31.2229 19.5166 31.2554 19.685 31.2554 19.8552C31.2554 20.1988 31.1231 20.5283 30.8878 20.7713L27.1378 24.6423C27.0216 24.7632 26.8833 24.8592 26.731 24.9247C26.5787 24.9902 26.4153 25.0239 26.2503 25.0239C26.0852 25.0239 25.9219 24.9902 25.7695 24.9247C25.6172 24.8592 25.479 24.7632 25.3628 24.6423C25.2469 24.5217 25.1552 24.3787 25.093 24.2215C25.0308 24.0643 24.9993 23.896 25.0003 23.7261Z" fill="#2F2F2F"/>
</svg>
