<svg width="24" height="24" viewBox="-5 -5 24 24" fill="none" xmlns="http://www.w3.org/2000/svg">
<g id="Icon">
<path id="Vector" d="M13.3396 1.86964C13.3396 1.58955 13.2284 1.32093 13.0303 1.12287C12.8323 0.924813 12.5636 0.813547 12.2836 0.813547L3.8348 0.760742C3.55471 0.760742 3.28609 0.872009 3.08803 1.07006C2.88998 1.26812 2.77871 1.53674 2.77871 1.81684C2.77871 2.09693 2.88998 2.36555 3.08803 2.56361C3.28609 2.76166 3.55471 2.87293 3.8348 2.87293H9.70668L0.972791 11.6279C0.873805 11.7261 0.795238 11.8429 0.741622 11.9716C0.688005 12.1003 0.6604 12.2384 0.6604 12.3778C0.6604 12.5172 0.688005 12.6552 0.741622 12.7839C0.795238 12.9126 0.873805 13.0294 0.972791 13.1276C1.07097 13.2266 1.18777 13.3052 1.31647 13.3588C1.44516 13.4124 1.5832 13.44 1.72262 13.44C1.86203 13.44 2.00007 13.4124 2.12877 13.3588C2.25746 13.3052 2.37427 13.2266 2.47244 13.1276L11.2275 4.37258V10.2656C11.2275 10.5457 11.3387 10.8143 11.5368 11.0124C11.7348 11.2104 12.0035 11.3217 12.2836 11.3217C12.5636 11.3217 12.8323 11.2104 13.0303 11.0124C13.2284 10.8143 13.3396 10.5457 13.3396 10.2656V1.86964Z" fill="#1F78FF"/>
</g>
</svg>
