<svg width="171" height="49" viewBox="0 0 171 49" fill="none" xmlns="http://www.w3.org/2000/svg">
<g id="Group">
<path id="Vector" d="M35.6963 48.5C42.858 48.5 48.6638 42.6942 48.6638 35.5325C48.6638 28.3707 42.858 22.5649 35.6963 22.5649C28.5345 22.5649 22.7288 28.3707 22.7288 35.5325C22.7288 42.6942 28.5345 48.5 35.6963 48.5Z" fill="#97CF26"/>
<path id="Vector_2" d="M11.3206 41.5685C14.6543 41.5685 17.3568 38.866 17.3568 35.5323C17.3568 32.1986 14.6543 29.4961 11.3206 29.4961C7.98692 29.4961 5.28442 32.1986 5.28442 35.5323C5.28442 38.866 7.98692 41.5685 11.3206 41.5685Z" fill="#A169F7"/>
<path id="Vector_3" d="M35.6962 19.5033C40.3058 19.5033 44.0426 15.7665 44.0426 11.1569C44.0426 6.54735 40.3058 2.81055 35.6962 2.81055C31.0867 2.81055 27.3499 6.54735 27.3499 11.1569C27.3499 15.7665 31.0867 19.5033 35.6962 19.5033Z" fill="#FF6163"/>
<path id="Vector_4" d="M11.3208 21.8139C17.2064 21.8139 21.9777 17.0426 21.9777 11.1569C21.9777 5.27128 17.2064 0.5 11.3208 0.5C5.4351 0.5 0.663818 5.27128 0.663818 11.1569C0.663818 17.0426 5.4351 21.8139 11.3208 21.8139Z" fill="#00AAFF"/>
<path id="Vector_5" d="M82.3771 41.4982H89.1085L76.6418 7.55273H71.7593L59.2903 41.4993H66.0225L68.4036 35.0197H79.9964L82.3774 41.4993L70.2787 29.9111L74.2007 19.2368L78.1205 29.9111H70.2787L82.3771 41.4982ZM105.796 18.3228L99.6011 35.1856L93.4092 18.3228H87.0842L95.5995 41.4978H103.604L112.118 18.3228H105.795M114.765 18.3228H121.09V41.4978H114.765V18.3228Z" fill="black"/>
<path id="Vector_6" d="M117.949 15.6912C120.198 15.6912 122.021 13.868 122.021 11.619C122.021 9.37004 120.198 7.54688 117.949 7.54688C115.7 7.54688 113.877 9.37004 113.877 11.619C113.877 13.868 115.7 15.6912 117.949 15.6912Z" fill="black"/>
<path id="Vector_7" d="M143.422 23.4302V18.3231H135.845V11.9302H129.525V18.3231H124.522V23.4302H129.525V33.4009C129.525 38.5439 132.096 41.9769 138.662 41.9769C141.198 41.9769 143.422 41.046 143.422 41.046L142.654 36.0422C142.654 36.0422 141.409 36.4143 139.878 36.4143C138.002 36.4143 135.845 35.6055 135.845 33.0122V23.4302H143.422ZM157.926 36.2005C154.4 36.2005 151.542 33.4047 151.542 29.9566C151.542 26.5111 154.399 23.7149 157.925 23.7149C161.452 23.7149 164.309 26.5118 164.309 29.9573C164.309 33.4058 161.452 36.2013 157.926 36.2013M157.926 17.7315C151.071 17.7315 145.511 23.1697 145.511 29.8729C145.511 36.5791 151.071 42.0143 157.925 42.0143C164.777 42.0143 170.336 36.5791 170.336 29.8729C170.336 23.1697 164.777 17.7315 157.925 17.7315" fill="black"/>
</g>
</svg>
