<svg width="24" height="15" viewBox="-1 0 24 15" fill="none" xmlns="http://www.w3.org/2000/svg">
<path d="M21.9175 0.0849609L11.9075 9.06329C11.6499 9.29394 11.3014 9.4234 10.9381 9.4234C10.5749 9.4234 10.2264 9.29394 9.96875 9.06329L0.048125 0.153072C0.0176271 0.254026 0.0014566 0.358054 0 0.46267V12.8466C0 13.175 0.144866 13.49 0.402728 13.7222C0.660591 13.9545 1.01033 14.085 1.375 14.085H20.625C20.9897 14.085 21.3394 13.9545 21.5973 13.7222C21.8551 13.49 22 13.175 22 12.8466V0.46267C21.9945 0.333664 21.9667 0.206221 21.9175 0.0849609ZM2.31688 12.8466H1.36125V11.9611L6.35938 7.49673L7.32875 8.36979L2.31688 12.8466ZM20.6112 12.8466H19.6488L14.6369 8.36979L15.6062 7.49673L20.6044 11.9611L20.6112 12.8466Z" fill="#2F2F2F"/>
<path d="M21 0.0900531C20.9058 0.0832635 20.8109 0.0832635 20.7167 0.0900531H1.36627C1.24226 0.0913898 1.11906 0.104397 1 0.128726L10.9862 7.08496L21 0.0900531Z" fill="#2F2F2F"/>
</svg>
