<svg width="24" height="20" viewBox="-2.5 0 24 20" fill="none" xmlns="http://www.w3.org/2000/svg">
<path id="Vector" d="M18.9978 16.645C18.8705 17.1942 18.5703 17.6875 18.1418 18.0518C17.6633 18.5403 17.0923 18.9277 16.4623 19.191C15.8323 19.4543 15.1561 19.5882 14.4737 19.5849H14.1324C12.716 19.5108 11.3277 19.159 10.0459 18.5494C9.73516 18.403 9.43298 18.2662 9.07361 18.0997C7.57136 17.2479 6.19253 16.1934 4.97564 14.9655C3.39379 13.4762 2.09753 11.708 1.15125 9.74903C0.630282 8.68032 0.279364 7.53624 0.111263 6.35844C-0.12359 5.13111 0.0152592 3.86121 0.509717 2.71425C0.81729 2.19354 1.19375 1.71709 1.62882 1.29791C1.82754 1.08027 2.06785 0.904997 2.33544 0.782515C2.60303 0.660033 2.89243 0.592848 3.18641 0.584961C3.50698 0.618979 3.81755 0.716917 4.09991 0.873033C4.38228 1.02915 4.63075 1.2403 4.83075 1.49409C5.27877 1.99173 5.80305 2.47022 6.27967 2.97742L6.89356 3.58415C7.25579 3.90282 7.4798 4.35165 7.51602 4.83397C7.51697 5.27801 7.35397 5.70578 7.05847 6.03594C6.87239 6.26745 6.67448 6.48913 6.46555 6.70008L6.26061 6.9154C6.14125 7.02675 6.04811 7.1634 5.98798 7.31542C5.93841 7.4628 5.92125 7.61974 5.94032 7.77477C6.09665 8.19968 6.34163 8.5863 6.66001 8.90784C7.1557 9.58156 7.63232 10.1682 8.16804 10.862C9.09198 11.9322 10.1874 12.8401 11.409 13.5483C11.5263 13.644 11.6664 13.7081 11.817 13.7339C11.9505 13.754 12.0849 13.7339 12.206 13.6746C12.5771 13.4751 12.9074 13.2069 13.1792 12.8841C13.5224 12.4592 14.02 12.1893 14.5614 12.131C14.8213 12.1319 15.0784 12.1852 15.3174 12.2876C15.5564 12.39 15.7726 12.5395 15.9531 12.7272C16.1756 12.9198 16.3862 13.1249 16.5851 13.3425L16.8768 13.6554L17.179 13.9483C17.363 14.1339 17.5384 14.3004 17.7128 14.4957C18.0306 14.77 18.3261 15.0663 18.5993 15.3847C18.8786 15.7426 19.0197 16.1905 18.9978 16.645Z" fill="#2F2F2F"/>
</svg>
