<svg width="24" height="20" viewBox="-3.5 0 24 20" fill="none" xmlns="http://www.w3.org/2000/svg">
<path d="M8.5 0.584961C10.7543 0.584961 12.9163 1.47831 14.5104 3.06847C16.1045 4.65863 17 6.81535 17 9.06418C17 11.9603 15.4171 14.3307 13.7492 16.0313C12.9159 16.8717 12.0067 17.6337 11.033 18.3075L10.6307 18.5807L10.4418 18.706L10.0857 18.9321L9.76839 19.1253L9.3755 19.3533C9.10882 19.5051 8.80706 19.585 8.5 19.585C8.19294 19.585 7.89118 19.5051 7.6245 19.3533L7.23161 19.1253L6.7405 18.8238L6.55917 18.706L6.17194 18.4488C5.12156 17.7399 4.14319 16.9302 3.25078 16.0313C1.58289 14.3298 0 11.9603 0 9.06418C0 6.81535 0.895533 4.65863 2.48959 3.06847C4.08365 1.47831 6.24566 0.584961 8.5 0.584961ZM8.5 6.23778C8.12792 6.23778 7.75949 6.31088 7.41573 6.45292C7.07197 6.59496 6.75963 6.80316 6.49653 7.06561C6.23343 7.32807 6.02473 7.63965 5.88234 7.98256C5.73995 8.32548 5.66667 8.69302 5.66667 9.06418C5.66667 9.43535 5.73995 9.80289 5.88234 10.1458C6.02473 10.4887 6.23343 10.8003 6.49653 11.0628C6.75963 11.3252 7.07197 11.5334 7.41573 11.6754C7.75949 11.8175 8.12792 11.8906 8.5 11.8906C9.25145 11.8906 9.97212 11.5928 10.5035 11.0628C11.0348 10.5327 11.3333 9.81379 11.3333 9.06418C11.3333 8.31457 11.0348 7.59567 10.5035 7.06561C9.97212 6.53556 9.25145 6.23778 8.5 6.23778Z" fill="#2F2F2F"/>
</svg>
