<svg width="28" height="28" viewBox="0 0 28 28" fill="none" xmlns="http://www.w3.org/2000/svg">
<rect width="28" height="28" rx="14" fill="#1F78FF"/>
<path fill-rule="evenodd" clip-rule="evenodd" d="M13.3852 10.7072C13.814 10.1254 13.9678 9.51215 13.4828 8.97088C12.3945 7.43756 11.6626 6.48936 11.2035 6.03273C10.3308 5.16462 8.89501 5.28205 8.13911 6.03199C7.73311 6.43479 7.59567 6.57312 7.17879 6.99946C4.85675 9.33876 6.27285 14.284 10.0374 18.0781C13.801 21.8714 18.7119 23.2981 21.0388 20.9538C21.4235 20.5804 21.7492 20.2523 22.0061 19.9789C22.7468 19.1906 22.8593 17.8087 22.0012 16.911C21.5613 16.4507 20.6633 15.7493 19.0764 14.6064C18.5903 14.1688 18.0141 14.2636 17.4858 14.6127C17.2316 14.7805 17.0467 14.9504 16.6974 15.3023L16.0633 15.9412C15.9797 16.0254 14.8456 15.4535 13.7446 14.3438C12.643 13.2336 12.0754 12.0915 12.1585 12.0078L12.7932 11.3685C12.904 11.2568 12.9569 11.2027 13.0249 11.1308C13.1664 10.9811 13.2836 10.8451 13.3852 10.7072ZM17.2331 17.1197L17.8674 16.4807C18.0596 16.2869 18.1842 16.1678 18.2855 16.0857C19.6756 17.0909 20.4807 17.7229 20.8096 18.067C21.007 18.2735 20.9763 18.6504 20.8047 18.8331C20.5672 19.0859 20.2586 19.3968 19.8799 19.7646C18.3752 21.2802 14.411 20.1286 11.2075 16.8998C8.00289 13.67 6.85971 9.67788 8.35302 8.17346C8.76821 7.74887 8.89976 7.61649 9.29996 7.21944C9.45001 7.07056 9.85875 7.03713 10.0413 7.21869C10.3947 7.57026 11.0504 8.41555 12.0149 9.76833C11.965 9.83075 11.9026 9.90128 11.8267 9.98159C11.771 10.0405 11.7246 10.0879 11.6231 10.1902L10.9892 10.8289C9.91063 11.9147 10.8291 13.7628 12.5746 15.522C14.3188 17.28 16.155 18.2059 17.2331 17.1197Z" fill="white"/>
</svg>
