<svg width="20" height="20" viewBox="0 0 20 20" fill="none" xmlns="http://www.w3.org/2000/svg">
<g id="Telegram">
<rect id="Rectangle" width="20" height="20" rx="10" fill="#419FD9"/>
<path id="Exclude" fill-rule="evenodd" clip-rule="evenodd" d="M12.223 14.9519C12.9219 15.2577 13.184 14.6169 13.184 14.6169L15.0334 5.32656C15.0188 4.70041 14.1742 5.07901 14.1742 5.07901L3.82084 9.14173C3.82084 9.14173 3.32574 9.31647 3.36943 9.62227C3.41311 9.92806 3.80628 10.0737 3.80628 10.0737L6.41283 10.9474C6.41283 10.9474 7.19916 13.5248 7.35934 14.0199C7.50496 14.5004 7.63601 14.515 7.63601 14.515C7.78163 14.5733 7.91268 14.4713 7.91268 14.4713L9.60184 12.9423L12.223 14.9519ZM12.6745 6.97198C12.6745 6.97198 13.0385 6.75355 13.024 6.97198C13.024 6.97198 13.0822 7.0011 12.8929 7.20496C12.7182 7.3797 8.5972 11.0784 8.04385 11.5735C8.00017 11.6026 7.97105 11.6463 7.97105 11.7045L7.81087 13.0733C7.78174 13.219 7.59244 13.2335 7.54876 13.1025L6.86436 10.86C6.83523 10.7726 6.86436 10.6707 6.95173 10.6124L12.6745 6.97198Z" fill="white"/>
</g>
</svg>
