<svg width="20" height="20" viewBox="0 0 20 20" fill="none" xmlns="http://www.w3.org/2000/svg">
<g id="WhatsApp">
<rect id="Rectangle" width="20" height="20" rx="10" fill="#0DC143"/>
<path id="Vector" d="M14.4795 5.50483C13.4074 4.40122 11.9255 3.80212 10.4119 3.80212C7.19573 3.80212 4.61014 6.41924 4.64168 9.60393C4.64168 10.6129 4.92546 11.5904 5.39843 12.4733L4.57861 15.4688L7.63717 14.6805C8.48852 15.1535 9.43447 15.3742 10.3804 15.3742C13.5651 15.3742 16.1507 12.7571 16.1507 9.57239C16.1507 8.02735 15.5516 6.5769 14.4795 5.50483ZM10.4119 14.3967C9.5606 14.3967 8.70924 14.176 7.98402 13.7346L7.79483 13.64L5.966 14.1129L6.43897 12.3156L6.31285 12.1264C4.92546 9.88771 5.58762 6.92375 7.85789 5.53636C10.1282 4.14897 13.0606 4.81113 14.448 7.0814C15.8354 9.35167 15.1732 12.2841 12.9029 13.6715C12.1777 14.1445 11.2948 14.3967 10.4119 14.3967ZM13.1867 10.8967L12.8399 10.7391C12.8399 10.7391 12.3354 10.5183 12.0201 10.3607C11.9885 10.3607 11.957 10.3292 11.9255 10.3292C11.8309 10.3292 11.7678 10.3607 11.7047 10.3922C11.7047 10.3922 11.6732 10.4237 11.2318 10.9282C11.2002 10.9913 11.1372 11.0228 11.0741 11.0228H11.0426C11.011 11.0228 10.948 10.9913 10.9165 10.9598L10.7588 10.8967C10.4119 10.7391 10.0966 10.5499 9.84438 10.2976C9.78132 10.2346 9.68672 10.1715 9.62366 10.1084C9.40294 9.88771 9.18222 9.63546 9.02456 9.35167L8.99303 9.28861C8.9615 9.25708 8.9615 9.22555 8.92996 9.16248C8.92996 9.09942 8.92996 9.03636 8.9615 9.00483C8.9615 9.00483 9.08762 8.84717 9.18222 8.75257C9.24528 8.68951 9.27681 8.59492 9.33987 8.53185C9.40294 8.43726 9.43447 8.31113 9.40294 8.21654C9.37141 8.05888 8.99303 7.20753 8.89843 7.01834C8.83537 6.92375 8.77231 6.89221 8.67771 6.86068H8.58312C8.52005 6.86068 8.42546 6.86068 8.33087 6.86068C8.2678 6.86068 8.20474 6.89221 8.14168 6.89221L8.11014 6.92375C8.04708 6.95528 7.98402 7.01834 7.92096 7.04987C7.85789 7.11293 7.82636 7.176 7.7633 7.23906C7.54258 7.52284 7.41645 7.86969 7.41645 8.21654C7.41645 8.46879 7.47951 8.72104 7.57411 8.94176L7.60564 9.03636C7.88942 9.63546 8.2678 10.1715 8.77231 10.6445L8.89843 10.7706C8.99303 10.8652 9.08762 10.9282 9.15069 11.0228C9.81285 11.5904 10.5696 12.0003 11.421 12.221C11.5156 12.2526 11.6417 12.2526 11.7363 12.2841C11.8309 12.2841 11.957 12.2841 12.0516 12.2841C12.2092 12.2841 12.3984 12.221 12.5246 12.158C12.6192 12.0949 12.6822 12.0949 12.7453 12.0319L12.8083 11.9688C12.8714 11.9057 12.9345 11.8742 12.9975 11.8111C13.0606 11.7481 13.1237 11.685 13.1552 11.6219C13.2183 11.4958 13.2498 11.3382 13.2813 11.1805C13.2813 11.1174 13.2813 11.0228 13.2813 10.9598C13.2813 10.9598 13.2498 10.9282 13.1867 10.8967Z" fill="white"/>
</g>
</svg>
