<svg width="41" height="41" viewBox="0 0 41 41" fill="none" xmlns="http://www.w3.org/2000/svg">
<g id="Frame" clip-path="url(#clip0_27_1147)">
<g id="Group">
<g id="Layer 1">
<g id="Group_2">
<path id="Vector" fill-rule="evenodd" clip-rule="evenodd" d="M20.5811 3.38135C20.1702 3.38135 19.8204 3.54217 19.5494 3.84688C17.2148 6.54699 15.0113 14.0548 13.3063 14.1987C9.26666 14.5542 2.43775 14.7489 0.356723 14.8589C0.23431 15.5107 0.225566 17.3728 0.374211 18.1769C0.400442 18.3377 0.470393 18.4901 0.566575 18.6425C2.49895 21.6304 8.27861 26.0149 8.81198 27.5892C8.36604 29.7476 7.64905 34.1236 7.56162 35.9181C7.56162 37.0946 7.50041 38.3473 7.5791 39.5239C7.60533 39.9217 7.7977 40.2518 8.12996 40.4803C8.46223 40.7173 8.84695 40.785 9.24043 40.6919C12.7729 39.837 18.8673 35.8673 20.5811 35.8673C22.2949 35.8673 28.3893 39.837 31.9218 40.6919C32.3241 40.785 32.7 40.7173 33.0323 40.4803C33.3646 40.2433 33.5569 39.9132 33.5832 39.5239C33.6706 38.3473 33.6007 37.0946 33.6007 35.9181C33.5132 34.1236 32.7875 29.7561 32.3503 27.5892C32.8837 26.0064 38.6633 21.6304 40.5957 18.6425C40.6919 18.4986 40.7531 18.3377 40.7881 18.1769C40.9367 17.3644 40.9367 15.5022 40.8055 14.8589C38.7245 14.7574 31.9044 14.5542 27.856 14.1987C26.1509 14.0464 23.9475 6.54699 21.6129 3.84688C21.3506 3.54217 20.9921 3.38135 20.5811 3.38135Z" fill="url(#paint0_radial_27_1147)"/>
<path id="Vector_2" fill-rule="evenodd" clip-rule="evenodd" d="M31.9219 37.5855C32.3241 37.6786 32.7001 37.6109 33.0324 37.3739C33.3647 37.1369 33.557 36.8068 33.5832 36.4174C33.8368 32.9047 31.817 26.0656 32.3504 24.4912C32.8837 22.9084 38.6634 18.5324 40.5958 15.5445C40.8144 15.2059 40.8581 14.8335 40.7357 14.4526C40.6045 14.0717 40.3422 13.8008 39.9662 13.6485C36.5911 12.328 29.2551 12.0741 27.8648 11.1007C26.4745 10.1273 23.9563 3.44901 21.6217 0.748902C21.3419 0.435724 20.9922 0.274902 20.5812 0.274902C20.1703 0.274902 19.8205 0.435724 19.5494 0.740438C17.2149 3.44055 14.6966 10.1189 13.3064 11.0923C11.9161 12.0657 4.58007 12.328 1.20496 13.64C0.820232 13.7924 0.557918 14.0632 0.435505 14.4441C0.313091 14.825 0.35681 15.1974 0.575405 15.536C2.50779 18.5239 8.28744 22.9084 8.82081 24.4828C9.35418 26.0656 7.33436 32.8963 7.58793 36.409C7.61416 36.8068 7.80653 37.1369 8.13879 37.3654C8.47106 37.6024 8.85578 37.6701 9.24926 37.577C12.7817 36.7221 18.8762 32.7524 20.59 32.7524C22.3037 32.7524 28.3982 36.7221 31.9307 37.577L31.9219 37.5855Z" fill="url(#paint1_radial_27_1147)"/>
<path id="Vector_3" style="mix-blend-mode:multiply" fill-rule="evenodd" clip-rule="evenodd" d="M39.2143 15.3669C35.1309 18.2024 32.8401 19.8953 29.2726 22.1722C28.7917 22.4769 28.3283 23.1371 28.5031 23.6619C29.5524 26.946 32.534 32.2024 32.7439 35.4865C32.8663 37.4164 31.17 36.8323 30.1645 36.4176C26.7107 34.9786 24.3848 32.9472 21.0797 31.3136C19.838 30.6957 18.9112 30.8819 17.8182 31.576C15.8246 32.8372 12.2659 35.9266 9.30177 36.8239C8.46236 37.0778 7.93773 37.0185 7.60547 36.6461C7.67542 36.9424 7.85029 37.1963 8.12135 37.3825C8.45362 37.6195 8.83834 37.6872 9.23181 37.5941C12.7643 36.7392 18.8587 32.7695 20.5725 32.7695C22.2863 32.7695 28.3807 36.7392 31.9132 37.5941C32.3154 37.6872 32.6914 37.6195 33.0237 37.3825C33.356 37.1455 33.5483 36.8154 33.5746 36.426C33.8281 32.9134 31.8083 26.0742 32.3417 24.4999C32.875 22.917 38.6547 18.541 40.5871 15.5531C40.8057 15.2145 40.8494 14.8421 40.727 14.4612C40.5958 14.0803 40.3335 13.8095 39.9575 13.6571C36.5824 12.3367 29.2464 12.0827 27.8561 11.1094C26.4658 10.136 23.9476 3.45764 21.613 0.757528C21.3507 0.452814 20.9922 0.291992 20.5813 0.291992C20.1703 0.291992 19.8206 0.452814 19.5495 0.757528C19.1823 1.18074 18.815 1.69706 18.4478 2.27264C19.4708 1.23999 20.5288 0.596706 21.4731 2.02717C23.2306 4.68496 23.9913 7.52896 24.9357 10.2121C25.5303 11.8881 25.88 12.5737 29.2901 12.8022C33.1898 13.0646 36.4338 13.3185 38.7596 13.6994C40.0362 13.911 40.0712 14.7829 39.2056 15.3754L39.2143 15.3669Z" fill="url(#paint2_radial_27_1147)"/>
<path id="Vector_4" style="mix-blend-mode:screen" fill-rule="evenodd" clip-rule="evenodd" d="M18.3252 3.02589C17.2147 5.015 16.2529 7.18186 15.2211 9.20482C14.338 10.9315 14.0145 11.9472 11.811 12.3197C9.09173 12.7683 6.3112 12.8445 3.58313 13.2761C0.627727 13.7332 -0.0630327 14.385 2.0792 16.6788C3.34705 18.0415 9.16168 23.1286 9.53766 24.3813C9.87867 25.4816 9.24037 27.5046 9.18791 28.7742C9.16168 29.3752 9.39776 30.2724 10.4295 29.1721C18.4476 20.5977 20.4936 18.998 32.1579 15.2314C33.417 14.8251 34.7023 14.5289 35.9702 14.1564C36.3199 14.0549 36.8008 13.7163 35.7516 13.5724C32.1054 13.0899 29.185 13.4793 26.0285 13.2C24.6207 13.073 23.7201 11.4394 23.2829 10.2967C22.3648 7.88439 21.8839 5.33664 21.0095 2.91585C20.3188 1.01139 19.0509 1.70546 18.3077 3.04282L18.3252 3.02589Z" fill="url(#paint3_radial_27_1147)"/>
<path id="Vector_5" style="mix-blend-mode:screen" fill-rule="evenodd" clip-rule="evenodd" d="M8.99573 14.1987C8.24376 14.0548 8.43613 13.3015 9.12689 13.1407C10.2461 12.8868 11.4178 12.836 12.537 12.582C13.6737 12.3196 14.3732 11.9557 15.0464 10.6099C16.2443 8.21446 17.4597 5.14193 18.7276 3.01739C19.191 2.25561 19.7069 2.36564 19.5845 3.229C19.1997 5.94604 18.5352 8.53611 17.7395 11.2362C17.3373 12.599 16.8914 14.0633 14.9503 14.2834C13.5338 14.4526 10.4734 14.4865 8.99573 14.1987ZM6.24143 13.3269C5.35831 13.3861 3.60081 13.5978 2.51657 13.9617C1.3449 14.3595 1.58973 14.605 2.65647 14.6643C3.79317 14.7235 4.93861 14.715 6.0753 14.6389C7.67542 14.5204 7.45682 13.2507 6.25018 13.3354L6.24143 13.3269Z" fill="url(#paint4_radial_27_1147)"/>
<path id="Vector_6" style="mix-blend-mode:screen" fill-rule="evenodd" clip-rule="evenodd" d="M29.2113 34.3948C28.6867 34.6064 27.4101 34.8772 28.9578 35.6983C29.6136 36.0453 30.3218 36.3077 31.0388 36.5108C32.5865 36.9341 32.6039 35.8591 32.3679 34.7672C31.9219 32.6511 30.9164 30.1626 29.9895 28.1058C29.5611 27.1663 29.0365 26.6753 29.2026 28.1735C29.395 29.8664 29.701 31.5423 29.8846 33.2352C29.9633 34.0054 29.9371 34.1154 29.2201 34.3948H29.2113Z" fill="url(#paint5_radial_27_1147)"/>
<path id="Vector_7" fill-rule="evenodd" clip-rule="evenodd" d="M8.69831 27.3352C8.89067 26.0317 8.98686 24.9906 8.81198 24.4828C8.27861 22.9 2.49895 18.5239 0.566575 15.536C0.426674 15.3244 0.356723 15.0874 0.356723 14.8589C0.23431 15.5106 0.225566 17.3728 0.374211 18.1769C0.400442 18.3377 0.470393 18.4901 0.566575 18.6424C2.40277 21.478 7.719 25.5831 8.69831 27.3352Z" fill="url(#paint6_radial_27_1147)"/>
<path id="Vector_8" fill-rule="evenodd" clip-rule="evenodd" d="M40.587 15.536C38.6546 18.5239 32.875 22.9084 32.3416 24.4828C32.1755 24.9906 32.2629 26.0317 32.4553 27.3352C33.4258 25.5831 38.7508 21.478 40.587 18.6424C40.6832 18.4985 40.7444 18.3377 40.7794 18.1769C40.928 17.3643 40.928 15.5022 40.7968 14.8589C40.7968 15.0959 40.7269 15.3244 40.587 15.536Z" fill="url(#paint7_radial_27_1147)"/>
<path id="Vector_9" fill-rule="evenodd" clip-rule="evenodd" d="M31.9218 37.5859C28.3893 36.731 22.2948 32.7612 20.5811 32.7612C21.1232 33.0744 21.1144 35.4613 20.5811 35.8676C22.2948 35.8676 28.3893 39.8374 31.9218 40.6923C32.324 40.7854 32.7 40.7177 33.0322 40.4807C33.3645 40.2437 33.5569 39.9136 33.5831 39.5242C33.6618 38.3815 33.6006 37.1627 33.6006 36.0115C33.6006 36.1554 33.5918 36.2908 33.5831 36.4178C33.5569 36.8156 33.3645 37.1457 33.0322 37.3743C32.7 37.6113 32.3152 37.679 31.9218 37.5859Z" fill="url(#paint8_radial_27_1147)"/>
<path id="Vector_10" style="mix-blend-mode:screen" opacity="0.5" fill-rule="evenodd" clip-rule="evenodd" d="M9.79141 40.5312C9.57281 40.0572 9.54658 37.8057 9.75643 37.4417C9.58156 37.4925 9.40668 37.5433 9.24055 37.5856C8.83834 37.6787 8.46235 37.611 8.13009 37.374C7.85903 37.1878 7.68415 36.9338 7.6142 36.6376C7.59672 36.5699 7.58797 36.4937 7.57923 36.4175C7.57048 36.2906 7.56174 36.1467 7.56174 36.0112C7.56174 37.1624 7.50053 38.3812 7.57923 39.5239C7.60546 39.9217 7.79782 40.2518 8.13009 40.4804C8.46235 40.7174 8.84708 40.7851 9.24055 40.692C9.41543 40.6497 9.59905 40.5989 9.79141 40.5396V40.5312Z" fill="url(#paint9_radial_27_1147)"/>
<path id="Vector_11" style="mix-blend-mode:screen" opacity="0.5" fill-rule="evenodd" clip-rule="evenodd" d="M31.3623 40.5312C31.5809 40.0572 31.6071 37.8057 31.3973 37.4417C31.5722 37.4925 31.747 37.5433 31.9132 37.5856C32.3154 37.6787 32.6914 37.611 33.0236 37.374C33.2947 37.1878 33.4696 36.9338 33.5395 36.6376C33.557 36.5699 33.5657 36.4937 33.5745 36.4175C33.5832 36.2906 33.592 36.1467 33.592 36.0112C33.592 37.1624 33.6532 38.3812 33.5745 39.5239C33.5483 39.9217 33.3559 40.2518 33.0236 40.4804C32.6914 40.7174 32.3066 40.7851 31.9132 40.692C31.7383 40.6497 31.5547 40.5989 31.3623 40.5396V40.5312Z" fill="url(#paint10_radial_27_1147)"/>
<path id="Vector_12" style="mix-blend-mode:screen" opacity="0.5" fill-rule="evenodd" clip-rule="evenodd" d="M1.85191 20.2677C1.42347 19.2605 1.38849 17.1698 1.87814 17.1952C1.35352 16.6112 0.907583 16.0525 0.566575 15.5277C0.426674 15.3161 0.356723 15.0791 0.356723 14.8506C0.23431 15.5023 0.225566 17.3645 0.374211 18.1686C0.400442 18.3294 0.470393 18.4818 0.566575 18.6341C0.898839 19.142 1.33603 19.6922 1.85191 20.2677Z" fill="url(#paint11_radial_27_1147)"/>
<path id="Vector_13" style="mix-blend-mode:screen" opacity="0.5" fill-rule="evenodd" clip-rule="evenodd" d="M39.3104 20.2677C39.7389 19.2605 39.7738 17.1698 39.2842 17.1952C39.8088 16.6112 40.2547 16.0525 40.5957 15.5277C40.7357 15.3161 40.8056 15.0791 40.8056 14.8506C40.928 15.5023 40.9368 17.3645 40.7881 18.1686C40.7619 18.3294 40.6919 18.4818 40.5957 18.6341C40.2635 19.142 39.8263 19.6922 39.3104 20.2677Z" fill="url(#paint12_radial_27_1147)"/>
</g>
</g>
</g>
</g>
<defs>
<radialGradient id="paint0_radial_27_1147" cx="0" cy="0" r="1" gradientUnits="userSpaceOnUse" gradientTransform="translate(7.92011 41.0644) scale(17.0242 16.48)">
<stop stop-color="#FC8200"/>
<stop offset="1" stop-color="#E34F00"/>
</radialGradient>
<radialGradient id="paint1_radial_27_1147" cx="0" cy="0" r="1" gradientUnits="userSpaceOnUse" gradientTransform="translate(12.2396 8.65455) scale(37.6333 36.4303)">
<stop stop-color="#FCF800"/>
<stop offset="1" stop-color="#FC9700"/>
</radialGradient>
<radialGradient id="paint2_radial_27_1147" cx="0" cy="0" r="1" gradientUnits="userSpaceOnUse" gradientTransform="translate(13.1578 7.03803) scale(39.181 37.9285)">
<stop stop-color="white"/>
<stop offset="0.1" stop-color="#FFFCF9"/>
<stop offset="0.22" stop-color="#FFF6E9"/>
<stop offset="0.36" stop-color="#FFECCE"/>
<stop offset="0.51" stop-color="#FFDEA9"/>
<stop offset="0.67" stop-color="#FFCB7A"/>
<stop offset="0.84" stop-color="#FFB540"/>
<stop offset="1" stop-color="#FF9D00"/>
</radialGradient>
<radialGradient id="paint3_radial_27_1147" cx="0" cy="0" r="1" gradientUnits="userSpaceOnUse" gradientTransform="translate(7.78016 1.78164) scale(33.3226 32.2574)">
<stop stop-color="#FFF261"/>
<stop offset="0.11" stop-color="#FAED5F"/>
<stop offset="0.23" stop-color="#ECE05A"/>
<stop offset="0.36" stop-color="#D6CB51"/>
<stop offset="0.5" stop-color="#B6AD45"/>
<stop offset="0.64" stop-color="#8E8636"/>
<stop offset="0.78" stop-color="#5C5723"/>
<stop offset="0.92" stop-color="#22210D"/>
<stop offset="1"/>
</radialGradient>
<radialGradient id="paint4_radial_27_1147" cx="0" cy="0" r="1" gradientUnits="userSpaceOnUse" gradientTransform="translate(13.1753 5.57361) scale(19.7872 19.1547)">
<stop stop-color="#FFFACF"/>
<stop offset="1"/>
</radialGradient>
<radialGradient id="paint5_radial_27_1147" cx="0" cy="0" r="1" gradientUnits="userSpaceOnUse" gradientTransform="translate(19.7068 30.5012) scale(23.6957 22.9382)">
<stop/>
<stop offset="0.17" stop-color="#251B00"/>
<stop offset="0.54" stop-color="#846100"/>
<stop offset="1" stop-color="#FFBB00"/>
</radialGradient>
<radialGradient id="paint6_radial_27_1147" cx="0" cy="0" r="1" gradientUnits="userSpaceOnUse" gradientTransform="translate(1.90438 16.6618) scale(11.7517 11.376)">
<stop stop-color="#FCAC00"/>
<stop offset="1" stop-color="#E36600"/>
</radialGradient>
<radialGradient id="paint7_radial_27_1147" cx="0" cy="0" r="1" gradientUnits="userSpaceOnUse" gradientTransform="translate(60.0857 27.0475) scale(28.155 27.255)">
<stop stop-color="#FCAC00"/>
<stop offset="1" stop-color="#E36600"/>
</radialGradient>
<radialGradient id="paint8_radial_27_1147" cx="0" cy="0" r="1" gradientUnits="userSpaceOnUse" gradientTransform="translate(35.7428 36.0538) scale(14.9694 14.4909)">
<stop stop-color="#FCAC00"/>
<stop offset="1" stop-color="#FF6600"/>
</radialGradient>
<radialGradient id="paint9_radial_27_1147" cx="0" cy="0" r="1" gradientUnits="userSpaceOnUse" gradientTransform="translate(5.94414 34.1237) scale(8.38531 8.11725)">
<stop stop-color="#FFF261"/>
<stop offset="0.11" stop-color="#FAED5F"/>
<stop offset="0.23" stop-color="#ECE05A"/>
<stop offset="0.36" stop-color="#D6CB51"/>
<stop offset="0.5" stop-color="#B6AD45"/>
<stop offset="0.64" stop-color="#8E8636"/>
<stop offset="0.78" stop-color="#5C5723"/>
<stop offset="0.92" stop-color="#22210D"/>
<stop offset="1"/>
</radialGradient>
<radialGradient id="paint10_radial_27_1147" cx="0" cy="0" r="1" gradientUnits="userSpaceOnUse" gradientTransform="translate(36.2851 34.6993) scale(8.7438 8.46429)">
<stop stop-color="#FFF261"/>
<stop offset="0.11" stop-color="#FAED5F"/>
<stop offset="0.23" stop-color="#ECE05A"/>
<stop offset="0.36" stop-color="#D6CB51"/>
<stop offset="0.5" stop-color="#B6AD45"/>
<stop offset="0.64" stop-color="#8E8636"/>
<stop offset="0.78" stop-color="#5C5723"/>
<stop offset="0.92" stop-color="#22210D"/>
<stop offset="1"/>
</radialGradient>
<radialGradient id="paint11_radial_27_1147" cx="0" cy="0" r="1" gradientUnits="userSpaceOnUse" gradientTransform="translate(0.540343 14.3427) scale(5.88458 5.69647)">
<stop stop-color="#FFF261"/>
<stop offset="0.11" stop-color="#FAED5F"/>
<stop offset="0.23" stop-color="#ECE05A"/>
<stop offset="0.36" stop-color="#D6CB51"/>
<stop offset="0.5" stop-color="#B6AD45"/>
<stop offset="0.64" stop-color="#8E8636"/>
<stop offset="0.78" stop-color="#5C5723"/>
<stop offset="0.92" stop-color="#22210D"/>
<stop offset="1"/>
</radialGradient>
<radialGradient id="paint12_radial_27_1147" cx="0" cy="0" r="1" gradientUnits="userSpaceOnUse" gradientTransform="translate(42.6331 14.0549) scale(7.72078 7.47397)">
<stop stop-color="#FFF261"/>
<stop offset="0.11" stop-color="#FAED5F"/>
<stop offset="0.23" stop-color="#ECE05A"/>
<stop offset="0.36" stop-color="#D6CB51"/>
<stop offset="0.5" stop-color="#B6AD45"/>
<stop offset="0.64" stop-color="#8E8636"/>
<stop offset="0.78" stop-color="#5C5723"/>
<stop offset="0.92" stop-color="#22210D"/>
<stop offset="1"/>
</radialGradient>
<clipPath id="clip0_27_1147">
<rect width="40.6237" height="40.4508" fill="white" transform="translate(0.269043 0.274414)"/>
</clipPath>
</defs>
</svg>
