<svg width="56" height="45" viewBox="0 0 56 45" fill="none" xmlns="http://www.w3.org/2000/svg">
<path d="M16.933 38.7903L16.8898 36.6295L16.8466 28.548C16.9273 28.2679 16.9175 27.9942 16.8172 27.7268C16.7769 27.592 16.6882 27.52 16.551 27.5108C15.6187 27.4439 14.6339 27.4474 13.5967 27.5211C13.3512 27.5373 13.1732 27.6024 13.0626 27.7165C12.9416 27.8409 12.8332 28.0138 12.7376 28.2351C11.6232 30.8096 10.4915 33.3767 9.34246 35.9363C8.19924 38.4809 7.05889 41.075 5.92143 43.7187C5.89086 43.7904 5.84198 43.853 5.77955 43.9002C5.71713 43.9475 5.64331 43.9779 5.56532 43.9884C3.90119 44.2154 2.20364 44.2293 0.47267 44.0299C0.448865 44.0273 0.426977 44.0157 0.411532 43.9977C0.396088 43.9797 0.388267 43.9566 0.389692 43.9331C0.402369 43.7153 0.465179 43.5171 0.578119 43.3384C0.783254 43.0111 0.8887 42.8406 0.894462 42.8268C2.70495 38.9787 4.48721 35.1175 6.24123 31.2429C6.94653 29.6848 7.66969 28.1492 8.41071 26.636C8.4464 26.5631 8.45246 26.4792 8.42762 26.4021C8.40278 26.325 8.34899 26.2607 8.2776 26.2229C6.92348 25.5038 5.78198 24.5847 4.85311 23.4657C4.16741 22.6394 3.59637 21.6454 3.14 20.4837C2.67672 19.3025 2.37881 18.1154 2.24628 16.9227C2.0446 15.0995 2.04115 13.5114 2.23591 12.1585C2.33848 11.4474 2.54073 10.6003 2.84267 9.61731C3.13885 8.65271 3.45693 7.84427 3.7969 7.19199C4.91823 5.03922 6.54375 3.40505 8.67347 2.28949C9.61041 1.79855 10.7 1.44359 11.9424 1.22463C13.2043 1.00221 14.4812 0.890419 15.7731 0.889266C17.4418 0.889266 19.1112 0.889266 20.7811 0.889266C20.7949 0.889266 20.8836 0.884081 21.0473 0.873709C21.4506 0.847202 21.6517 1.06847 21.6506 1.53752C21.6356 5.80156 21.6212 10.0656 21.6074 14.3297C21.6062 14.8413 21.616 15.2845 21.6368 15.659C21.6736 16.3171 21.6915 16.7579 21.6903 16.9814C21.6615 22.5074 21.6638 28.034 21.6973 33.5611C21.7019 34.3494 21.6903 35.1376 21.6627 35.9259C21.6327 36.7441 21.6246 37.5307 21.6385 38.2855C21.6627 39.6742 21.646 41.0629 21.5884 42.4516C21.5745 42.802 21.5843 43.1996 21.6177 43.6444C21.6408 43.9417 21.5036 44.0979 21.2063 44.1129C19.9329 44.1786 18.6104 44.1763 17.239 44.106C17.1843 44.1032 17.1322 44.0817 17.0913 44.0453C17.0505 44.0088 17.0233 43.9595 17.0143 43.9054C16.9624 43.5954 16.9388 43.2589 16.9434 42.8959C16.9596 41.5268 16.9561 40.1583 16.933 38.7903ZM16.7809 4.85483C16.3776 4.71538 15.965 4.66122 15.5432 4.69234C14.9543 4.73498 14.3694 4.807 13.7886 4.90842C12.9577 5.05247 12.3803 5.17233 12.0565 5.26798C11.4365 5.44892 10.866 5.72723 10.3451 6.10293C9.88872 6.43138 9.45829 6.88429 9.05378 7.46166C7.84832 9.18226 7.21332 11.1259 7.14878 13.2925C7.11191 14.5117 7.14878 15.6498 7.25942 16.7066C7.37927 17.8486 7.70426 18.9683 8.23439 20.0654C9.18631 22.0361 10.7484 23.1925 12.9208 23.5348C14.0802 23.7181 15.3139 23.7878 16.6219 23.744C16.6838 23.7422 16.7427 23.7166 16.7861 23.6725C16.8296 23.6283 16.8544 23.5691 16.8553 23.5072C16.9037 19.3042 16.9181 15.0649 16.8985 10.7893C16.8973 10.6845 16.8823 10.511 16.8535 10.269C16.8328 10.0938 16.8287 9.91868 16.8414 9.7435C16.8691 9.37587 16.8789 9.1183 16.8708 8.97079C16.827 8.19174 16.8437 7.41326 16.9209 6.63536C16.9728 6.10178 16.9797 5.57799 16.9417 5.064C16.938 5.01714 16.9208 4.9724 16.8923 4.93526C16.8637 4.89811 16.825 4.87016 16.7809 4.85483Z" fill="#FE3534"/>
<path d="M28.0379 39.8469C27.5804 40.059 27.1188 40.2958 26.6532 40.5574C26.6347 40.5677 26.614 40.5733 26.5928 40.5739C26.5716 40.5744 26.5506 40.5698 26.5316 40.5605C26.5126 40.5511 26.4961 40.5373 26.4836 40.5202C26.471 40.5032 26.4628 40.4833 26.4596 40.4623C26.44 40.3402 26.4193 40.2278 26.3974 40.1253C26.3732 40.0043 26.36 39.8907 26.3576 39.7847C26.2182 32.3733 26.1848 24.962 26.2574 17.5506C26.2747 15.8611 26.3098 14.8395 26.3628 14.4857C26.5103 13.5107 26.8301 12.5259 27.3222 11.5314C28.568 9.01903 29.8288 6.51361 31.1046 4.01511C31.108 4.00935 31.3126 3.54895 31.7182 2.6339C31.966 2.07381 32.2881 1.55233 32.6846 1.06946C32.7388 1.00275 32.8105 0.951959 32.892 0.922523C33.4233 0.730065 33.7644 0.818803 33.9154 1.18874C34.0398 1.49414 34.1902 1.78398 34.3666 2.05826C34.5994 2.42128 34.7613 2.70132 34.8523 2.89839C36.0486 5.47526 37.2771 8.03599 38.5378 10.5806C39.2155 11.9497 39.7831 13.0197 40.2406 13.7907C40.4699 14.1779 40.709 14.443 40.958 14.5859C41.2081 14.7288 41.4841 14.8135 41.786 14.84C42.1271 14.87 42.3017 14.8856 42.3098 14.8867C44.4752 15.2048 46.6418 15.5148 48.8096 15.8167C48.941 15.8352 49.2757 15.8588 49.8139 15.8876C50.117 15.9037 50.453 15.9464 50.8218 16.0155C52.2531 16.2829 53.6827 16.5601 55.1106 16.847C55.4125 16.9069 55.6315 17.0216 55.7675 17.191C56.0948 17.6013 56.0245 18.0381 55.5566 18.5013C55.1636 18.8909 54.755 19.2625 54.3309 19.6163C53.7939 20.0646 53.3808 20.4288 53.0915 20.7089C51.4781 22.2773 49.8537 23.8349 48.2184 25.3814C47.414 26.1421 46.6142 27.0571 45.819 28.1266C45.3684 28.7339 45.1984 29.3891 45.309 30.0921C45.7815 33.1023 46.3082 36.1026 46.889 39.0932C47.0896 40.1235 47.2284 41.4851 47.3056 43.1781C47.3206 43.5042 47.2924 43.7434 47.2209 43.8955C47.0873 44.179 46.8568 44.2481 46.5295 44.1029C46.2494 43.9796 46.1019 43.9151 46.0869 43.9093C45.5222 43.7099 44.9812 43.4587 44.4637 43.1556C43.4069 42.5379 42.3265 41.9657 41.2225 41.439C39.9778 40.8455 38.7603 40.2019 37.5698 39.5081C36.0071 38.5988 34.9825 38.0249 34.4962 37.7864C33.5915 37.3404 32.6656 37.3865 31.7182 37.9247C30.9634 38.3534 30.2028 38.7706 29.4364 39.1762C29.2036 39.2995 28.7374 39.5231 28.0379 39.8469Z" fill="#FFDD52"/>
</svg>
